<svg width="153" height="40" viewBox="0 0 153 40" fill="none" xmlns="http://www.w3.org/2000/svg">
<path d="M93.746 27.221C92.8507 27.221 92.063 27.068 91.383 26.762C90.703 26.456 90.1703 26.0197 89.785 25.453C89.411 24.8863 89.2127 24.2233 89.19 23.464H90.21C90.2553 24.3367 90.5953 25.0167 91.23 25.504C91.8647 25.9913 92.7033 26.235 93.746 26.235C94.7207 26.235 95.4913 26.0367 96.058 25.64C96.6247 25.232 96.908 24.6823 96.908 23.991C96.908 23.3677 96.6417 22.8633 96.109 22.478C95.5877 22.0813 94.732 21.7527 93.542 21.492C92.0687 21.152 91.0033 20.7157 90.346 20.183C89.7 19.639 89.377 18.925 89.377 18.041C89.377 17.0777 89.7397 16.3127 90.465 15.746C91.2017 15.168 92.199 14.879 93.457 14.879C94.7717 14.879 95.803 15.1963 96.551 15.831C97.3103 16.4657 97.7127 17.3553 97.758 18.5H96.738C96.6927 17.6613 96.381 17.0153 95.803 16.562C95.2363 16.0973 94.4543 15.865 93.457 15.865C92.505 15.865 91.757 16.0633 91.213 16.46C90.6803 16.8567 90.414 17.3837 90.414 18.041C90.414 18.6417 90.669 19.1403 91.179 19.537C91.7003 19.9223 92.573 20.251 93.797 20.523C95.2817 20.863 96.347 21.3107 96.993 21.866C97.639 22.41 97.962 23.1127 97.962 23.974C97.962 24.9713 97.5823 25.7647 96.823 26.354C96.0637 26.932 95.038 27.221 93.746 27.221ZM101.094 15.1H108.098V16.069H102.131V20.455H107.656V21.407H102.131V26.031H108.285V27H101.094V15.1ZM111.453 15.1H115.856C116.65 15.1 117.341 15.253 117.93 15.559C118.531 15.865 118.996 16.2957 119.324 16.851C119.653 17.4063 119.817 18.058 119.817 18.806C119.817 19.7807 119.545 20.591 119.001 21.237C118.457 21.883 117.715 22.2853 116.774 22.444L120.004 27H118.763L115.567 22.529H112.49V27H111.453V15.1ZM115.754 21.543C116.695 21.543 117.432 21.2993 117.964 20.812C118.497 20.3247 118.763 19.656 118.763 18.806C118.763 17.9673 118.497 17.3043 117.964 16.817C117.432 16.3297 116.695 16.086 115.754 16.086H112.49V21.543H115.754ZM121.228 15.1H122.333L126.498 25.572L128.283 21.05L130.663 15.1H131.751L126.991 27H126.005L121.228 15.1ZM134.048 15.1H141.052V16.069H135.085V20.455H140.61V21.407H135.085V26.031H141.239V27H134.048V15.1ZM144.407 15.1H148.81C149.604 15.1 150.295 15.253 150.884 15.559C151.485 15.865 151.95 16.2957 152.278 16.851C152.607 17.4063 152.771 18.058 152.771 18.806C152.771 19.7807 152.499 20.591 151.955 21.237C151.411 21.883 150.669 22.2853 149.728 22.444L152.958 27H151.717L148.521 22.529H145.444V27H144.407V15.1ZM148.708 21.543C149.649 21.543 150.386 21.2993 150.918 20.812C151.451 20.3247 151.717 19.656 151.717 18.806C151.717 17.9673 151.451 17.3043 150.918 16.817C150.386 16.3297 149.649 16.086 148.708 16.086H145.444V21.543H148.708Z" fill="#EBEBEB"/>
<path d="M5.746 27.221C4.85067 27.221 4.063 27.068 3.383 26.762C2.703 26.456 2.17033 26.0197 1.785 25.453C1.411 24.8863 1.21267 24.2233 1.19 23.464H2.21C2.25533 24.3367 2.59533 25.0167 3.23 25.504C3.86467 25.9913 4.70333 26.235 5.746 26.235C6.72067 26.235 7.49133 26.0367 8.058 25.64C8.62467 25.232 8.908 24.6823 8.908 23.991C8.908 23.3677 8.64167 22.8633 8.109 22.478C7.58767 22.0813 6.732 21.7527 5.542 21.492C4.06867 21.152 3.00333 20.7157 2.346 20.183C1.7 19.639 1.377 18.925 1.377 18.041C1.377 17.0777 1.73967 16.3127 2.465 15.746C3.20167 15.168 4.199 14.879 5.457 14.879C6.77167 14.879 7.803 15.1963 8.551 15.831C9.31033 16.4657 9.71267 17.3553 9.758 18.5H8.738C8.69267 17.6613 8.381 17.0153 7.803 16.562C7.23633 16.0973 6.45433 15.865 5.457 15.865C4.505 15.865 3.757 16.0633 3.213 16.46C2.68033 16.8567 2.414 17.3837 2.414 18.041C2.414 18.6417 2.669 19.1403 3.179 19.537C3.70033 19.9223 4.573 20.251 5.797 20.523C7.28167 20.863 8.347 21.3107 8.993 21.866C9.639 22.41 9.962 23.1127 9.962 23.974C9.962 24.9713 9.58233 25.7647 8.823 26.354C8.06367 26.932 7.038 27.221 5.746 27.221ZM15.9622 15.1H16.9482L21.8782 27H20.7902L19.5492 24.008H13.3612L12.1372 27H11.0322L15.9622 15.1ZM19.1582 23.056L16.4552 16.511L13.7692 23.056H19.1582ZM24.1837 15.1H30.7457V16.069H25.2207V20.744H30.3037V21.696H25.2207V27H24.1837V15.1ZM33.6964 15.1H40.7004V16.069H34.7334V20.455H40.2584V21.407H34.7334V26.031H40.8874V27H33.6964V15.1Z" fill="#EBEBEB"/>
<circle cx="65.5" cy="21.5" r="17" fill="#854798" stroke="#5D1F70" stroke-width="3"/>
<path d="M62.0972 14.5347C63.0215 12.4318 65.1154 11.1915 67.3617 11.0183C69.0836 10.8474 71.1517 11.897 72.2147 13.2084C73.3491 14.6077 73.6775 16.113 73.494 17.8801C75.4567 18.0312 77.0185 20.042 76.9401 21.9789C76.8397 24.4611 75.2334 26.2939 72.6142 26.1636C72.4841 26.0383 72.3717 25.8942 72.243 25.7666L67.0579 20.6168C66.7589 20.3223 66.4713 20.0154 66.1706 19.7231C65.5963 19.1653 65.2049 19.3093 64.6838 19.8517L64.3363 20.2157C64.1136 20.447 63.8809 20.6686 63.6537 20.8957L59.2162 25.2718C59.0665 25.4161 58.4279 26.1118 58.2698 26.1504C57.5819 26.3174 56.3997 25.8914 55.8335 25.5325C52.8855 23.6646 53.635 18.6363 57.061 17.8907C57.2026 15.4486 59.8347 13.7371 62.0972 14.5347Z" fill="#EBEBEB"/>
<path d="M60.5598 25.823C61.1042 25.2224 61.7717 24.6428 62.3454 24.055C63.3153 23.0622 64.4365 21.8112 65.4964 20.9309C65.6064 21.0011 65.7258 21.1485 65.8232 21.2445L69.3804 24.8073C69.7147 25.1486 70.073 25.475 70.3805 25.8406C69.72 26.4222 69.1306 27.0872 68.4782 27.6802C67.9333 27.1566 67.357 26.4947 66.7998 26.0188C66.84 26.4829 66.8151 26.9649 66.8151 27.4315L66.8146 30.3666C66.8146 30.9018 66.7883 31.4523 66.828 31.9858C66.3681 31.9606 65.9001 31.9768 65.4391 31.9763C64.9979 31.9776 64.5551 31.9863 64.1145 31.9662C64.1366 31.4327 64.1229 30.8942 64.1229 30.3602L64.1226 27.5613C64.1226 27.0466 64.1022 26.5218 64.1335 26.0082C63.5774 26.5436 63.0313 27.1468 62.48 27.6993C62.0707 27.2475 61.0211 26.1808 60.5598 25.823Z" fill="#EBEBEB"/>
</svg>
