<svg width="172" height="172" viewBox="0 0 172 172" fill="none" xmlns="http://www.w3.org/2000/svg">
<circle cx="86" cy="86" r="84.5" fill="#854798" stroke="#713384" stroke-width="3"/>
<path d="M70.1818 53.6206C74.4784 43.8453 84.2121 38.0792 94.6545 37.2742C102.659 36.4796 112.273 41.3589 117.214 47.4553C122.488 53.96 124.014 60.9576 123.161 69.1724C132.285 69.8746 139.545 79.2221 139.181 88.2262C138.714 99.7649 131.247 108.285 119.071 107.679C118.467 107.097 117.944 106.427 117.346 105.834L93.2423 81.8945C91.8521 80.5251 90.5153 79.0985 89.1173 77.7396C86.4475 75.1465 84.6282 75.8163 82.2055 78.3378L80.5904 80.0296C79.5553 81.1051 78.4733 82.135 77.4174 83.191L56.7887 103.534C56.093 104.205 53.1241 107.439 52.3894 107.618C49.1916 108.395 43.696 106.414 41.0639 104.746C27.3597 96.0626 30.8439 72.6874 46.7702 69.2218C47.4282 57.8691 59.6639 49.9131 70.1818 53.6206Z" fill="#EBEBEB"/>
<path d="M63.0348 106.096C65.5654 103.304 68.6682 100.61 71.3354 97.8775C75.844 93.2623 81.0561 87.4468 85.9834 83.3544C86.4945 83.6808 87.0498 84.3661 87.5023 84.8122L104.039 101.374C105.593 102.961 107.258 104.478 108.688 106.178C105.617 108.882 102.877 111.973 99.8447 114.73C97.3114 112.295 94.6326 109.219 92.0421 107.007C92.2294 109.164 92.1136 111.405 92.1136 113.574L92.111 127.218C92.111 129.705 91.9888 132.265 92.1734 134.745C90.0355 134.628 87.8599 134.703 85.7168 134.7C83.6661 134.707 81.6075 134.747 79.5593 134.654C79.662 132.174 79.5983 129.67 79.5983 127.188L79.597 114.177C79.597 111.784 79.5021 109.345 79.6478 106.957C77.0625 109.446 74.5241 112.25 71.9609 114.818C70.0584 112.718 65.1792 107.759 63.0348 106.096Z" fill="#EBEBEB"/>
</svg>
